<mxfile host="Electron" agent="Mozilla/5.0 (Macintosh; Intel Mac OS X 10_15_7) AppleWebKit/537.36 (KHTML, like Gecko) draw.io/26.0.9 Chrome/128.0.6613.186 Electron/32.2.5 Safari/537.36" version="26.0.9">
  <diagram name="Page-1" id="SW4rBvFPORpR9CNC25zS">
    <mxGraphModel dx="1434" dy="769" grid="0" gridSize="10" guides="1" tooltips="1" connect="1" arrows="1" fold="1" page="1" pageScale="1" pageWidth="850" pageHeight="1100" math="0" shadow="0">
      <root>
        <mxCell id="0" />
        <mxCell id="1" parent="0" />
        <mxCell id="7wBWYLvsx_RHBiwLf5fN-13" value="" style="edgeStyle=orthogonalEdgeStyle;rounded=0;orthogonalLoop=1;jettySize=auto;html=1;fontStyle=2;fontSize=12;" parent="1" source="7wBWYLvsx_RHBiwLf5fN-1" target="7wBWYLvsx_RHBiwLf5fN-3" edge="1">
          <mxGeometry relative="1" as="geometry" />
        </mxCell>
        <mxCell id="7wBWYLvsx_RHBiwLf5fN-14" style="edgeStyle=orthogonalEdgeStyle;rounded=0;orthogonalLoop=1;jettySize=auto;html=1;exitX=1;exitY=0.25;exitDx=0;exitDy=0;entryX=0;entryY=0.5;entryDx=0;entryDy=0;fontStyle=2;fontSize=12;" parent="1" source="7wBWYLvsx_RHBiwLf5fN-1" target="7wBWYLvsx_RHBiwLf5fN-2" edge="1">
          <mxGeometry relative="1" as="geometry" />
        </mxCell>
        <mxCell id="7wBWYLvsx_RHBiwLf5fN-15" style="edgeStyle=orthogonalEdgeStyle;rounded=0;orthogonalLoop=1;jettySize=auto;html=1;exitX=1;exitY=0.75;exitDx=0;exitDy=0;entryX=0;entryY=0.5;entryDx=0;entryDy=0;fontStyle=2;fontSize=12;" parent="1" source="7wBWYLvsx_RHBiwLf5fN-1" target="7wBWYLvsx_RHBiwLf5fN-4" edge="1">
          <mxGeometry relative="1" as="geometry" />
        </mxCell>
        <mxCell id="7wBWYLvsx_RHBiwLf5fN-1" value="Data" style="rounded=0;whiteSpace=wrap;html=1;fontSize=12;fontStyle=2" parent="1" vertex="1">
          <mxGeometry x="54" y="355" width="70" height="35" as="geometry" />
        </mxCell>
        <mxCell id="7wBWYLvsx_RHBiwLf5fN-16" style="edgeStyle=orthogonalEdgeStyle;rounded=0;orthogonalLoop=1;jettySize=auto;html=1;exitX=1;exitY=0.5;exitDx=0;exitDy=0;entryX=0;entryY=0.25;entryDx=0;entryDy=0;fontStyle=2;fontSize=12;" parent="1" source="7wBWYLvsx_RHBiwLf5fN-2" target="7wBWYLvsx_RHBiwLf5fN-5" edge="1">
          <mxGeometry relative="1" as="geometry" />
        </mxCell>
        <mxCell id="7wBWYLvsx_RHBiwLf5fN-2" value="Model" style="rounded=0;whiteSpace=wrap;html=1;fontSize=12;fontStyle=2" parent="1" vertex="1">
          <mxGeometry x="164" y="281" width="70" height="35" as="geometry" />
        </mxCell>
        <mxCell id="7wBWYLvsx_RHBiwLf5fN-17" style="edgeStyle=orthogonalEdgeStyle;rounded=0;orthogonalLoop=1;jettySize=auto;html=1;exitX=1;exitY=0.5;exitDx=0;exitDy=0;entryX=0;entryY=0.5;entryDx=0;entryDy=0;fontStyle=2;fontSize=12;" parent="1" source="7wBWYLvsx_RHBiwLf5fN-3" target="7wBWYLvsx_RHBiwLf5fN-5" edge="1">
          <mxGeometry relative="1" as="geometry">
            <mxPoint x="254" y="373" as="targetPoint" />
          </mxGeometry>
        </mxCell>
        <mxCell id="7wBWYLvsx_RHBiwLf5fN-3" value="Model" style="rounded=0;whiteSpace=wrap;html=1;fontSize=12;fontStyle=2" parent="1" vertex="1">
          <mxGeometry x="164" y="355" width="70" height="35" as="geometry" />
        </mxCell>
        <mxCell id="7wBWYLvsx_RHBiwLf5fN-18" style="edgeStyle=orthogonalEdgeStyle;rounded=0;orthogonalLoop=1;jettySize=auto;html=1;exitX=1;exitY=0.5;exitDx=0;exitDy=0;entryX=0;entryY=0.75;entryDx=0;entryDy=0;fontStyle=2;fontSize=12;" parent="1" source="7wBWYLvsx_RHBiwLf5fN-4" target="7wBWYLvsx_RHBiwLf5fN-5" edge="1">
          <mxGeometry relative="1" as="geometry" />
        </mxCell>
        <mxCell id="7wBWYLvsx_RHBiwLf5fN-4" value="Model" style="rounded=0;whiteSpace=wrap;html=1;fontSize=12;fontStyle=2" parent="1" vertex="1">
          <mxGeometry x="164" y="430" width="70" height="35" as="geometry" />
        </mxCell>
        <mxCell id="7wBWYLvsx_RHBiwLf5fN-5" value="Insight" style="rounded=0;whiteSpace=wrap;html=1;fontSize=12;fontStyle=2" parent="1" vertex="1">
          <mxGeometry x="274" y="355" width="70" height="35" as="geometry" />
        </mxCell>
        <mxCell id="7wBWYLvsx_RHBiwLf5fN-39" style="edgeStyle=orthogonalEdgeStyle;rounded=0;orthogonalLoop=1;jettySize=auto;html=1;exitX=1;exitY=0.5;exitDx=0;exitDy=0;entryX=0;entryY=0.5;entryDx=0;entryDy=0;fontStyle=2;fontSize=12;" parent="1" source="7wBWYLvsx_RHBiwLf5fN-22" target="7wBWYLvsx_RHBiwLf5fN-24" edge="1">
          <mxGeometry relative="1" as="geometry">
            <Array as="points">
              <mxPoint x="509" y="375" />
              <mxPoint x="509" y="299" />
            </Array>
          </mxGeometry>
        </mxCell>
        <mxCell id="7wBWYLvsx_RHBiwLf5fN-22" value="Data" style="rounded=0;whiteSpace=wrap;html=1;fontSize=12;fontStyle=2" parent="1" vertex="1">
          <mxGeometry x="412" y="357" width="70" height="35" as="geometry" />
        </mxCell>
        <mxCell id="7wBWYLvsx_RHBiwLf5fN-23" style="edgeStyle=orthogonalEdgeStyle;rounded=0;orthogonalLoop=1;jettySize=auto;html=1;exitX=1;exitY=0.5;exitDx=0;exitDy=0;entryX=0;entryY=0.25;entryDx=0;entryDy=0;fontStyle=2;fontSize=12;" parent="1" source="7wBWYLvsx_RHBiwLf5fN-24" target="7wBWYLvsx_RHBiwLf5fN-29" edge="1">
          <mxGeometry relative="1" as="geometry" />
        </mxCell>
        <mxCell id="7wBWYLvsx_RHBiwLf5fN-38" style="edgeStyle=orthogonalEdgeStyle;rounded=0;orthogonalLoop=1;jettySize=auto;html=1;exitX=0.5;exitY=1;exitDx=0;exitDy=0;fontStyle=2;fontSize=12;" parent="1" source="7wBWYLvsx_RHBiwLf5fN-24" target="7wBWYLvsx_RHBiwLf5fN-32" edge="1">
          <mxGeometry relative="1" as="geometry" />
        </mxCell>
        <mxCell id="7wBWYLvsx_RHBiwLf5fN-24" value="Model" style="rounded=0;whiteSpace=wrap;html=1;fontSize=12;fontStyle=2" parent="1" vertex="1">
          <mxGeometry x="632" y="281" width="70" height="35" as="geometry" />
        </mxCell>
        <mxCell id="7wBWYLvsx_RHBiwLf5fN-25" style="edgeStyle=orthogonalEdgeStyle;rounded=0;orthogonalLoop=1;jettySize=auto;html=1;exitX=1;exitY=0.5;exitDx=0;exitDy=0;entryX=0;entryY=0.5;entryDx=0;entryDy=0;fontStyle=2;fontSize=12;" parent="1" source="7wBWYLvsx_RHBiwLf5fN-26" target="7wBWYLvsx_RHBiwLf5fN-29" edge="1">
          <mxGeometry relative="1" as="geometry">
            <mxPoint x="722" y="375" as="targetPoint" />
          </mxGeometry>
        </mxCell>
        <mxCell id="7wBWYLvsx_RHBiwLf5fN-31" style="edgeStyle=orthogonalEdgeStyle;rounded=0;orthogonalLoop=1;jettySize=auto;html=1;exitX=0.5;exitY=1;exitDx=0;exitDy=0;fontStyle=2;fontSize=12;" parent="1" source="7wBWYLvsx_RHBiwLf5fN-26" target="7wBWYLvsx_RHBiwLf5fN-35" edge="1">
          <mxGeometry relative="1" as="geometry" />
        </mxCell>
        <mxCell id="7wBWYLvsx_RHBiwLf5fN-26" value="Model" style="rounded=0;whiteSpace=wrap;html=1;fontSize=12;fontStyle=2" parent="1" vertex="1">
          <mxGeometry x="632" y="357" width="70" height="35" as="geometry" />
        </mxCell>
        <mxCell id="7wBWYLvsx_RHBiwLf5fN-27" style="edgeStyle=orthogonalEdgeStyle;rounded=0;orthogonalLoop=1;jettySize=auto;html=1;exitX=1;exitY=0.5;exitDx=0;exitDy=0;entryX=0;entryY=0.75;entryDx=0;entryDy=0;fontStyle=2;fontSize=12;" parent="1" source="7wBWYLvsx_RHBiwLf5fN-28" target="7wBWYLvsx_RHBiwLf5fN-29" edge="1">
          <mxGeometry relative="1" as="geometry" />
        </mxCell>
        <mxCell id="7wBWYLvsx_RHBiwLf5fN-28" value="Model" style="rounded=0;whiteSpace=wrap;html=1;fontSize=12;fontStyle=2" parent="1" vertex="1">
          <mxGeometry x="632" y="434" width="70" height="35" as="geometry" />
        </mxCell>
        <mxCell id="7wBWYLvsx_RHBiwLf5fN-29" value="Insight" style="rounded=0;whiteSpace=wrap;html=1;fontSize=12;fontStyle=2" parent="1" vertex="1">
          <mxGeometry x="742" y="357" width="70" height="35" as="geometry" />
        </mxCell>
        <mxCell id="7wBWYLvsx_RHBiwLf5fN-37" style="edgeStyle=orthogonalEdgeStyle;rounded=0;orthogonalLoop=1;jettySize=auto;html=1;exitX=1;exitY=0.5;exitDx=0;exitDy=0;entryX=0;entryY=0.5;entryDx=0;entryDy=0;fontStyle=2;fontSize=12;" parent="1" source="7wBWYLvsx_RHBiwLf5fN-32" target="7wBWYLvsx_RHBiwLf5fN-26" edge="1">
          <mxGeometry relative="1" as="geometry" />
        </mxCell>
        <mxCell id="7wBWYLvsx_RHBiwLf5fN-32" value="Data" style="rounded=0;whiteSpace=wrap;html=1;fontSize=12;fontStyle=2" parent="1" vertex="1">
          <mxGeometry x="529" y="357" width="70" height="35" as="geometry" />
        </mxCell>
        <mxCell id="7wBWYLvsx_RHBiwLf5fN-41" style="edgeStyle=orthogonalEdgeStyle;rounded=0;orthogonalLoop=1;jettySize=auto;html=1;exitX=1;exitY=0.5;exitDx=0;exitDy=0;entryX=0;entryY=0.5;entryDx=0;entryDy=0;fontStyle=2;fontSize=12;" parent="1" source="7wBWYLvsx_RHBiwLf5fN-35" target="7wBWYLvsx_RHBiwLf5fN-28" edge="1">
          <mxGeometry relative="1" as="geometry" />
        </mxCell>
        <mxCell id="7wBWYLvsx_RHBiwLf5fN-35" value="Data" style="rounded=0;whiteSpace=wrap;html=1;fontSize=12;fontStyle=2" parent="1" vertex="1">
          <mxGeometry x="529" y="434" width="70" height="35" as="geometry" />
        </mxCell>
        <mxCell id="7wBWYLvsx_RHBiwLf5fN-42" value="Boosting" style="text;html=1;align=center;verticalAlign=middle;whiteSpace=wrap;rounded=0;fontSize=22;" parent="1" vertex="1">
          <mxGeometry x="158" y="213" width="60" height="30" as="geometry" />
        </mxCell>
        <mxCell id="7wBWYLvsx_RHBiwLf5fN-44" value="Bagging" style="text;html=1;align=center;verticalAlign=middle;whiteSpace=wrap;rounded=0;fontSize=22;" parent="1" vertex="1">
          <mxGeometry x="597" y="213" width="60" height="30" as="geometry" />
        </mxCell>
        <mxCell id="7wBWYLvsx_RHBiwLf5fN-46" value="" style="endArrow=none;html=1;rounded=0;" parent="1" edge="1">
          <mxGeometry width="50" height="50" relative="1" as="geometry">
            <mxPoint x="379" y="483" as="sourcePoint" />
            <mxPoint x="379" y="211" as="targetPoint" />
          </mxGeometry>
        </mxCell>
      </root>
    </mxGraphModel>
  </diagram>
</mxfile>
